<?xml version="1.0" encoding="UTF-8"?>
<svg version="1.1" xmlns="http://www.w3.org/2000/svg" width="512" height="512">
<path d="M0 0 C11.52932613 7.78072009 19.0561266 18.30676123 21.8046875 31.953125 C22.33790179 36.06844553 22.26494014 40.1649263 22.109375 44.3046875 C22.65464844 44.45164063 23.19992187 44.59859375 23.76171875 44.75 C35.78947569 48.32748668 44.69075479 55.94356176 51.26171875 66.5078125 C52.109375 68.3046875 52.109375 68.3046875 52.109375 71.3046875 C53.058125 70.9746875 54.006875 70.6446875 54.984375 70.3046875 C64.40126654 67.70562543 73.2338529 69.54538115 82.109375 73.3046875 C91.79810646 78.88655369 97.6552843 88.05001879 100.796875 98.6171875 C102.09148377 109.75082293 100.55977664 119.90192792 93.9296875 129.1640625 C90.69362513 132.96956074 86.93555353 136.1136546 83.109375 139.3046875 C82.449375 139.9646875 81.789375 140.6246875 81.109375 141.3046875 C81.68945312 141.7171875 82.26953125 142.1296875 82.8671875 142.5546875 C91.91409303 149.24282888 97.40246633 156.24638987 100.109375 167.3046875 C101.65372673 180.56300215 98.06636872 193.91945235 95.55078125 206.84765625 C95.08129036 209.30890525 94.61287848 211.77036029 94.14549255 214.23200989 C92.91942334 220.67241604 91.67767464 227.10970326 90.43286133 233.54650879 C89.41482466 238.81791137 88.41055924 244.09193085 87.40568638 249.36585522 C86.20766618 255.65214813 85.00503681 261.93755514 83.80078125 268.22265625 C83.57091585 269.42253866 83.34105045 270.62242107 83.10421944 271.85866356 C82.45548327 275.2385307 81.80366839 278.61778705 81.15063477 281.99682617 C80.86147942 283.50455345 80.86147942 283.50455345 80.56648254 285.04273987 C80.38841064 285.96060272 80.21033875 286.87846558 80.02687073 287.82414246 C79.8729313 288.62174579 79.71899187 289.41934912 79.56038761 290.24112225 C79.109375 292.3046875 79.109375 292.3046875 78.109375 295.3046875 C79.07488281 294.98242188 80.04039062 294.66015625 81.03515625 294.328125 C92.10083969 291.1871498 105.87728115 292.18864057 116.109375 297.3046875 C118.55771358 298.85431569 120.88981906 300.44545151 123.171875 302.23046875 C125.01591716 303.48529969 125.01591716 303.48529969 126.98828125 303.16015625 C130.8423704 301.6057446 134.46226776 299.61214213 138.13671875 297.6796875 C147.24314398 293.46751709 156.7570863 294.87242327 165.99609375 297.98828125 C175.54540558 302.02607057 181.50564599 309.3665473 186.20703125 318.41796875 C189.68594353 327.01007303 189.37445495 337.54776289 186.484375 346.2421875 C182.81568114 354.87064867 177.15369219 361.40148464 169.109375 366.3046875 C168.119375 366.3046875 167.129375 366.3046875 166.109375 366.3046875 C166.8209375 368.13 166.8209375 368.13 167.546875 369.9921875 C169.65559708 375.40151805 170.16241482 379.88060737 169.859375 385.6796875 C169.80539617 391.01759369 170.31103852 393.65001299 173.796875 397.62109375 C177.07632453 401.82776859 178.109375 407.09680701 178.109375 412.3046875 C178.69203125 412.25828125 179.2746875 412.211875 179.875 412.1640625 C192.12256031 411.62486173 202.01140369 416.35703198 211.23046875 424.08203125 C220.55713932 432.70347153 225.97234593 444.39097809 226.51171875 457.04785156 C226.71929381 469.26595012 223.63666591 479.5786353 216.109375 489.3046875 C215.0265625 490.8515625 215.0265625 490.8515625 213.921875 492.4296875 C206.38552396 501.04266012 194.74747988 505.4731542 183.62890625 506.68359375 C171.89084883 507.08745588 161.91057343 504.07143989 152.23046875 497.4765625 C149.92972623 495.98229509 149.92972623 495.98229509 146.109375 496.3046875 C144.12988467 497.30538335 144.12988467 497.30538335 142.234375 498.6796875 C136.3106889 502.78070095 130.7664667 503.66617266 123.734375 503.6171875 C122.60273926 503.61634155 122.60273926 503.61634155 121.44824219 503.61547852 C116.03062098 503.5256545 112.07916754 502.50286497 107.109375 500.3046875 C102.85315826 500.41382126 99.09867054 502.57316517 95.29296875 504.3671875 C86.14829773 508.29334321 72.1883392 507.86090954 62.921875 504.6796875 C55.68931392 501.46647747 49.44877243 497.1294847 44.109375 491.3046875 C43.449375 490.6446875 42.789375 489.9846875 42.109375 489.3046875 C41.80644531 489.82417969 41.50351562 490.34367187 41.19140625 490.87890625 C36.79594245 498.19566291 32.22931792 503.28768303 24.109375 506.3046875 C20.90120357 506.83871517 17.76800376 506.85043319 14.52090454 506.8193512 C13.58599131 506.82629672 12.65107808 506.83324225 11.68783414 506.84039825 C8.57110275 506.85861964 5.45513671 506.84841728 2.33837891 506.83813477 C0.09728935 506.84519572 -2.14379543 506.85394147 -4.38487244 506.86424255 C-10.46140091 506.88672743 -16.53766879 506.88379862 -22.614223 506.87492108 C-27.69122539 506.86980735 -32.76817898 506.877107 -37.84517634 506.88439316 C-50.50945052 506.90236089 -63.17356919 506.8959845 -75.83782716 506.87822335 C-86.82052762 506.86353242 -97.80295434 506.87814903 -108.78561954 506.90699352 C-120.07929002 506.93643249 -131.37283753 506.94683908 -142.666556 506.93781132 C-149.00044388 506.93288648 -155.33411908 506.935074 -161.66798019 506.95559883 C-167.62548663 506.97398015 -173.58248537 506.96796655 -179.53996468 506.94339943 C-181.72239619 506.93839929 -183.90486655 506.94186048 -186.08726692 506.95454788 C-208.57975143 507.07493128 -208.57975143 507.07493128 -216.46838951 499.86208439 C-222.62062194 493.09830336 -223.93789132 485.15903566 -225.54077148 476.48413086 C-225.79113481 475.1652179 -226.0422879 473.84645466 -226.29416084 472.52782917 C-226.98187846 468.91506243 -227.6583745 465.30027225 -228.33304715 461.68505001 C-229.06172021 457.791535 -229.8009117 453.90001619 -230.5388031 450.00823975 C-231.97892077 442.40363006 -233.4094408 434.79724614 -234.83638734 427.19015515 C-236.49618758 418.34271521 -238.16357925 409.49671187 -239.83146238 400.65079272 C-242.07612552 388.74532405 -244.3189015 376.83950395 -246.55627441 364.93266296 C-250.86695937 341.99663927 -255.21616833 319.06829923 -259.59860331 296.14588064 C-261.72643594 285.01357468 -263.8430493 273.87913327 -265.95830441 262.7444315 C-267.50944684 254.58137908 -269.06581032 246.41939005 -270.63473511 238.25973511 C-271.96793701 231.32592172 -273.29042215 224.39016933 -274.59937996 217.45173657 C-275.2644434 213.92831325 -275.93436877 210.40601623 -276.6184063 206.88622284 C-284.38040523 166.89601405 -284.38040523 166.89601405 -276.890625 155.3046875 C-273.31233145 150.75108289 -269.72763815 146.52936294 -264.890625 143.3046875 C-264.890625 142.6446875 -264.890625 141.9846875 -264.890625 141.3046875 C-265.90125 140.6446875 -266.911875 139.9846875 -267.953125 139.3046875 C-274.83272835 134.54617889 -279.42800343 127.12892149 -281.453125 119.06640625 C-283.31419703 107.31838908 -282.00662372 96.81839614 -275.078125 86.9921875 C-268.93921757 79.48737317 -261.56363853 74.1820746 -251.890625 72.3046875 C-241.75490186 71.59051731 -232.72654884 72.09583247 -224.515625 78.4921875 C-223.90976563 79.02199219 -223.30390625 79.55179687 -222.6796875 80.09765625 C-220.69766919 81.67754505 -220.69766919 81.67754505 -216.890625 81.3046875 C-214.25654425 79.84449297 -214.25654425 79.84449297 -211.578125 77.9296875 C-207.33000215 75.11089285 -203.87270035 73.30110257 -198.890625 72.3046875 C-199.1071875 71.36109375 -199.1071875 71.36109375 -199.328125 70.3984375 C-202.08103898 57.70444527 -200.89386908 46.01194854 -194.890625 34.3046875 C-187.23199755 22.41725049 -176.68673529 14.58054214 -162.890625 11.3046875 C-149.0419082 9.81389546 -136.62436653 11.72794709 -125.28515625 20.24609375 C-119.20882625 25.46995331 -114.0779783 30.45527906 -111.890625 38.3046875 C-111.230625 38.3046875 -110.570625 38.3046875 -109.890625 38.3046875 C-109.643125 37.7478125 -109.395625 37.1909375 -109.140625 36.6171875 C-104.78417365 28.5577525 -97.31984657 24.38888943 -88.890625 21.3046875 C-81.06864352 19.56646939 -74.47615548 20.13739308 -66.890625 22.3046875 C-66.684375 21.4796875 -66.478125 20.6546875 -66.265625 19.8046875 C-62.13552934 9.29171673 -53.40439761 2.18577797 -43.48046875 -2.65234375 C-29.59169318 -8.24556106 -12.95635005 -7.59872422 0 0 Z " fill="#F6CC3D" transform="translate(283.890625,5.6953125)"/>
<path d="M0 0 C3.84692812 1.97099612 5.49729036 4.46723697 7.37109375 8.21484375 C7.74394705 12.68908332 7.81598955 15.24767896 5.93359375 19.33984375 C-0.28926101 26.32158324 -9.48759703 31.44749337 -18.8828125 32.45703125 C-20.81640625 32.46484375 -20.81640625 32.46484375 -23.62890625 32.21484375 C-23.62890625 33.20484375 -23.62890625 34.19484375 -23.62890625 35.21484375 C-22.60152344 35.18003906 -21.57414062 35.14523438 -20.515625 35.109375 C-8.80655663 34.82738243 1.07100608 35.31854108 10.37109375 43.2734375 C17.94759389 50.62796987 22.51888815 59.26580652 22.75756836 69.9855957 C22.60615599 81.41103338 19.98728463 92.58107565 17.8125 103.7578125 C17.34300911 106.2190615 16.87459723 108.68051654 16.4072113 111.14216614 C15.18114209 117.58257229 13.93939339 124.01985951 12.69458008 130.45666504 C11.67654341 135.72806762 10.67227799 141.0020871 9.66740513 146.27601147 C8.46938493 152.56230438 7.26675556 158.84771139 6.0625 165.1328125 C5.7177019 166.93263612 5.7177019 166.93263612 5.36593819 168.76881981 C4.71720202 172.14868695 4.06538714 175.5279433 3.41235352 178.90698242 C3.21958328 179.91213394 3.02681305 180.91728546 2.82820129 181.95289612 C2.65012939 182.87075897 2.4720575 183.78862183 2.28858948 184.73429871 C2.13465005 185.53190204 1.98071062 186.32950537 1.82210636 187.1512785 C1.37109375 189.21484375 1.37109375 189.21484375 0.37109375 192.21484375 C1.33660156 191.89257812 2.30210937 191.5703125 3.296875 191.23828125 C14.36255844 188.09730605 28.1389999 189.09879682 38.37109375 194.21484375 C40.81943233 195.76447194 43.15153781 197.35560776 45.43359375 199.140625 C47.27763591 200.39545594 47.27763591 200.39545594 49.25 200.0703125 C53.10408915 198.51590085 56.72398651 196.52229838 60.3984375 194.58984375 C69.50486273 190.37767334 79.01880505 191.78257952 88.2578125 194.8984375 C97.80712433 198.93622682 103.76736474 206.27670355 108.46875 215.328125 C111.94766228 223.92022928 111.6361737 234.45791914 108.74609375 243.15234375 C105.07739989 251.78080492 99.41541094 258.31164089 91.37109375 263.21484375 C90.38109375 263.21484375 89.39109375 263.21484375 88.37109375 263.21484375 C88.84546875 264.43171875 89.31984375 265.64859375 89.80859375 266.90234375 C91.91731583 272.3116743 92.42413357 276.79076362 92.12109375 282.58984375 C92.06711492 287.92774994 92.57275727 290.56016924 96.05859375 294.53125 C99.33804328 298.73792484 100.37109375 304.00696326 100.37109375 309.21484375 C100.95375 309.1684375 101.53640625 309.12203125 102.13671875 309.07421875 C114.38427906 308.53501798 124.27312244 313.26718823 133.4921875 320.9921875 C142.81885807 329.61362778 148.23406468 341.30113434 148.7734375 353.95800781 C148.98101256 366.17610637 145.89838466 376.48879155 138.37109375 386.21484375 C137.64921875 387.24609375 136.92734375 388.27734375 136.18359375 389.33984375 C128.64724271 397.95281637 117.00919863 402.38331045 105.890625 403.59375 C94.15256758 403.99761213 84.17229218 400.98159614 74.4921875 394.38671875 C72.19144498 392.89245134 72.19144498 392.89245134 68.37109375 393.21484375 C66.39160342 394.2155396 66.39160342 394.2155396 64.49609375 395.58984375 C58.57240765 399.6908572 53.02818545 400.57632891 45.99609375 400.52734375 C44.86445801 400.5264978 44.86445801 400.5264978 43.70996094 400.52563477 C38.29233973 400.43581075 34.34088629 399.41302122 29.37109375 397.21484375 C25.11487701 397.32397751 21.36038929 399.48332142 17.5546875 401.27734375 C8.41001648 405.20349946 -5.54994205 404.77106579 -14.81640625 401.58984375 C-22.04896733 398.37663372 -28.28950882 394.03964095 -33.62890625 388.21484375 C-34.28890625 387.55484375 -34.94890625 386.89484375 -35.62890625 386.21484375 C-35.93183594 386.73433594 -36.23476563 387.25382812 -36.546875 387.7890625 C-40.94235917 395.10585308 -45.51139564 400.19147622 -53.62890625 403.21484375 C-56.68088356 403.70316696 -59.63824177 403.68608288 -62.72265625 403.60546875 C-63.55478638 403.59980896 -64.3869165 403.59414917 -65.2442627 403.58831787 C-67.87309035 403.56612559 -70.50049842 403.51596508 -73.12890625 403.46484375 C-74.92315724 403.44475643 -76.71742984 403.42650959 -78.51171875 403.41015625 C-82.88465227 403.36631758 -87.25653953 403.29741314 -91.62890625 403.21484375 C-90.73576305 395.40203449 -89.8394412 387.58959219 -88.94140625 379.77734375 C-88.80541016 378.59395416 -88.66941406 377.41056458 -88.52929688 376.1913147 C-86.8834482 361.8861225 -85.20184633 347.58679539 -83.4263916 333.29711914 C-81.21102375 315.46327161 -79.23292906 297.60878136 -77.31103516 279.74105835 C-75.53157182 263.21736848 -73.64182588 246.7116717 -71.62890625 230.21484375 C-69.03217644 208.92221209 -66.67322924 187.60808253 -64.37014771 166.28189087 C-64.24928802 165.16277313 -64.12842834 164.0436554 -64.00390625 162.890625 C-63.88506073 161.7896347 -63.76621521 160.68864441 -63.64376831 159.55429077 C-62.63060225 150.18724219 -61.57996824 140.82485558 -60.50390625 131.46484375 C-60.42576691 130.78304047 -60.34762756 130.10123718 -60.26712036 129.39877319 C-59.46019549 122.35880948 -58.64271259 115.320172 -57.81109619 108.28308105 C-57.44057573 105.14129379 -57.07375598 101.9990794 -56.70733643 98.85681152 C-56.45356307 96.69347668 -56.19444905 94.53083116 -55.93505859 92.36816406 C-54.79242656 82.6611393 -54.11030302 72.97468939 -53.62890625 63.21484375 C-52.96890625 63.21484375 -52.30890625 63.21484375 -51.62890625 63.21484375 C-51.58765625 62.43109375 -51.54640625 61.64734375 -51.50390625 60.83984375 C-49.76433532 53.63304988 -45.19847831 47.92680883 -40.62890625 42.21484375 C-49.04390625 40.23484375 -49.04390625 40.23484375 -57.62890625 38.21484375 C-57.62890625 27.18505711 -54.90085481 19.4680673 -47.62890625 11.21484375 C-47.10425781 10.59738281 -46.57960938 9.97992188 -46.0390625 9.34375 C-41.59905186 4.48585601 -36.63451844 1.79281554 -30.62890625 -0.78515625 C-29.85933594 -1.15253906 -29.08976562 -1.51992187 -28.296875 -1.8984375 C-19.44245688 -4.84126753 -8.53595094 -3.25454846 0 0 Z " fill="#F6CB39" transform="translate(361.62890625,108.78515625)"/>
<path d="M0 0 C7.24910164 4.95700474 12.95117602 12.35711638 15.67578125 20.71484375 C15.97264187 23.50263486 16.10927711 25.99538236 16.05859375 28.7734375 C16.05030548 29.58139267 16.04201721 30.38934784 16.03347778 31.2217865 C15.75719993 43.43218288 14.19014772 55.57266374 12.79008102 67.69395828 C12.46477958 70.52608925 12.1476426 73.35911163 11.83051968 76.19216824 C9.62262349 95.91334727 7.28029047 115.61844703 4.87646484 135.31665039 C2.875433 151.76190542 1.07188434 168.22552974 -0.69848633 184.69702148 C-2.59049067 202.27622574 -4.62515312 219.83335689 -6.76559448 237.38394165 C-8.59263666 252.37841537 -10.28924793 267.38174662 -11.88671875 282.40234375 C-13.83668758 300.73056487 -16.06881634 319.01015023 -18.49519348 337.28111267 C-18.98823473 341.0244983 -19.4516324 344.76932704 -19.87744141 348.52099609 C-19.96653275 349.30419724 -20.05562408 350.08739838 -20.14741516 350.89433289 C-20.31614213 352.39427511 -20.48149895 353.89460146 -20.64299011 355.39533997 C-21.21513902 360.49668429 -21.21513902 360.49668429 -22.32421875 362.71484375 C-39.48421875 362.71484375 -56.64421875 362.71484375 -74.32421875 362.71484375 C-74.32421875 352.813309 -74.31997252 342.95508953 -74.03833008 333.06518555 C-74.00585112 331.86885057 -73.97337215 330.6725156 -73.93990898 329.43992805 C-73.84760226 326.08788567 -73.75273254 322.7359396 -73.65598273 319.3840239 C-73.59238199 317.17913696 -73.52945666 314.97423141 -73.46659279 312.76932335 C-72.11714487 265.61866334 -70.53256201 218.4747717 -68.89883232 171.33320808 C-68.80008127 168.48182532 -68.70140259 165.63044006 -68.6027832 162.77905273 C-68.57830609 162.07154538 -68.55382897 161.36403802 -68.52861013 160.63509105 C-68.12696645 149.01180277 -67.74309869 137.38798907 -67.36546304 125.76389877 C-66.97221187 113.66985205 -66.56163343 101.57648584 -66.13461715 89.48358363 C-65.89749281 82.75525869 -65.66847049 76.02688135 -65.45850182 69.29764748 C-65.26246885 63.02431296 -65.04487504 56.75209434 -64.81078339 50.48006821 C-64.72907706 48.19065145 -64.65512611 45.90094204 -64.58970833 43.61100197 C-64.13650469 27.95451451 -63.23699882 15.74095166 -51.8671875 3.9140625 C-37.78196254 -8.26716892 -16.08425523 -8.89364701 0 0 Z " fill="#C3DEF6" transform="translate(292.32421875,149.28515625)"/>
<path d="M0 0 C9.82527654 5.14793154 16.53451993 12.44236616 20.54102993 22.83986378 C23.608863 34.1879408 22.539812 47.67552234 22.94116211 59.3684082 C23.01664514 61.50917379 23.09237114 63.64993081 23.1683197 65.79067993 C23.33083632 70.38588008 23.49166573 74.98113501 23.65116692 79.57644081 C23.90524436 86.89563868 24.16325797 94.21469473 24.42176819 101.53373718 C24.87881261 114.48781984 25.33256066 127.4420164 25.7855835 140.39624023 C26.46270167 159.75760786 27.14254657 179.11887951 27.8252297 198.4800517 C28.07968256 205.69981526 28.3324903 212.91963384 28.58397096 220.13950151 C29.45659194 245.15899868 30.38474147 270.17443918 31.4747076 295.18552876 C32.14259802 310.62266215 32.53421559 326.04942749 32.75 341.5 C32.87375 349.585 32.9975 357.67 33.125 366 C15.635 366 -1.855 366 -19.875 366 C-28.00803524 299.25778602 -28.00803524 299.25778602 -30.37280273 278.18310547 C-31.35329341 269.46661195 -32.37685243 260.75587996 -33.421875 252.046875 C-36.64328629 225.17886063 -39.75144824 198.30576897 -42.65734482 171.40211105 C-44.65838326 152.87875531 -46.7487466 134.36980823 -49 115.875 C-52.76247949 84.81951985 -52.76247949 84.81951985 -54.41351318 70.2041626 C-54.63198139 68.28613614 -54.85460046 66.36857625 -55.08209229 64.45159912 C-56.27981774 54.33212959 -57.08169768 44.30077261 -57.16796875 34.10546875 C-57.18145355 33.19625671 -57.19493835 32.28704468 -57.20883179 31.35028076 C-57.17631582 21.8035469 -53.99803817 15.15963555 -47.5625 8.0625 C-35.14444109 -3.22664447 -15.61314462 -6.01440201 0 0 Z " fill="#D9E9F6" transform="translate(135.875,146)"/>
<path d="M0 0 C4.10860512 1.85731464 7.482255 4.31614412 10.8515625 7.2890625 C13.94267092 5.80760962 16.81841625 4.10099163 19.7265625 2.2890625 C25.21924935 -1.00333751 30.25300955 -3.4225034 36.8359375 -3.296875 C40.36160579 -2.27197143 42.08131673 0.43715312 44.23828125 3.2734375 C45.8690444 5.51953489 45.8690444 5.51953489 48.8515625 7.2890625 C50.8515625 9.2890625 50.8515625 9.2890625 50.96875 11.234375 C50.6494864 14.1077474 50.1499049 16.69237769 48.8515625 19.2890625 C47.07133796 19.61057462 45.27513404 19.84487226 43.4765625 20.0390625 C33.69982243 21.56014676 25.90894616 25.86391077 19.70029616 33.63827151 C14.0031699 41.80704739 12.10227739 50.33070692 11.87738037 60.12406921 C11.83297829 61.25287233 11.78857621 62.38167544 11.74282861 63.54468471 C11.60083406 67.29457749 11.49131503 71.04468245 11.38183594 74.7956543 C11.28870299 77.49950615 11.18866332 80.20309246 11.08892822 82.90670776 C10.85069568 89.47556826 10.63652027 96.04500093 10.4302375 102.61493357 C10.18759542 110.30739044 9.91911464 117.99888341 9.64933088 125.69042835 C9.16710361 139.45913519 8.70556314 153.22845479 8.25683594 166.99829102 C7.82444435 180.26562917 7.38160457 193.53255121 6.92480469 206.79907227 C6.89681375 207.61208381 6.86882282 208.42509536 6.83998367 209.26274361 C6.72732202 212.53390321 6.61459397 215.80506051 6.50177597 219.07621471 C5.58282176 245.72681496 4.67620191 272.3778644 3.80371094 299.0300293 C3.77053427 300.0421152 3.77053427 300.0421152 3.73668736 301.07464729 C3.09897703 320.55222554 2.51928922 340.0301856 2.149822 359.51492661 C1.935569 368.81846202 1.39958388 377.97269906 0.8515625 387.2890625 C-15.3184375 387.2890625 -31.4884375 387.2890625 -48.1484375 387.2890625 C-49.27309833 378.29177587 -49.27309833 378.29177587 -49.32598877 374.79837036 C-49.34036232 374.00496372 -49.35473587 373.21155708 -49.36954498 372.39410782 C-49.38069084 371.55393993 -49.3918367 370.71377205 -49.40332031 369.84814453 C-49.43632975 367.97337688 -49.46943555 366.09861092 -49.50262451 364.22384644 C-49.51852379 363.24017971 -49.53442307 362.25651299 -49.55080414 361.24303818 C-49.83374494 344.12354639 -50.27033323 327.01473178 -50.9453125 309.90625 C-50.98219429 308.96938984 -51.01907608 308.03252968 -51.0570755 307.06727982 C-51.25125061 302.16035491 -51.44885745 297.25357559 -51.64831543 292.34686279 C-52.0994562 281.23438581 -52.52858197 270.12103294 -52.9609375 259.0078125 C-53.03049778 257.22379091 -53.03049778 257.22379091 -53.10146332 255.40372849 C-54.23996453 226.19074889 -55.33162465 196.97606669 -56.38733292 167.75998116 C-56.66778066 160.00047218 -56.95038233 152.24105921 -57.23962402 144.48187256 C-59.33713513 88.13639175 -59.33713513 88.13639175 -59.46207428 67.22230911 C-59.47149464 65.66559087 -59.48524966 64.10889074 -59.50405121 62.55225754 C-59.63350661 50.34222417 -58.80065926 39.55476698 -50.1484375 30.2890625 C-42.67508602 23.14063935 -35.22861094 20.69732203 -25.1484375 19.2890625 C-25.47199219 18.556875 -25.79554688 17.8246875 -26.12890625 17.0703125 C-27.94218168 12.12375271 -27.97548435 7.29138645 -25.9609375 2.4140625 C-18.94924023 -5.8065481 -9.12717711 -3.27823674 0 0 Z " fill="#DF254F" transform="translate(217.1484375,124.7109375)"/>
<path d="M0 0 C9.12783142 7.82604338 12.59439549 15.49961607 14.3359375 27.25 C14.50513702 28.35138809 14.67433655 29.45277618 14.84866333 30.58753967 C16.48714603 41.53269137 17.71360161 52.51481407 18.85031128 63.521698 C19.47219234 69.53561758 20.11749638 75.54703289 20.76171875 81.55859375 C20.89210037 82.77856552 21.02248199 83.99853729 21.15681458 85.25547791 C22.4193796 96.99487967 23.82967262 108.71435797 25.265625 120.43359375 C27.60939424 139.60469712 29.75333773 158.79440416 31.828125 177.99609375 C34.49322359 202.65662127 37.35432016 227.28836725 40.3525238 251.91067505 C41.52782684 261.58870649 42.62381676 271.27509326 43.71069336 280.96337891 C44.79510832 290.56838053 45.95272185 300.1636235 47.12890625 309.7578125 C47.28854355 311.06388458 47.44818085 312.36995667 47.61265564 313.71560669 C47.77504033 315.0441302 47.93743966 316.37265193 48.09985352 317.70117188 C48.18059459 318.36164457 48.26133566 319.02211727 48.34452343 319.70260429 C48.90547236 324.28610172 49.47362605 328.86867797 50.04272461 333.45117188 C50.34119834 335.88669238 50.63946588 338.32223816 50.9375 340.7578125 C51.14811821 342.43214607 51.14811821 342.43214607 51.36299133 344.14030457 C52.05134963 349.8086014 52.48152592 355.28621854 52.328125 360.99609375 C47.24195047 361.12073609 42.15668644 361.21091767 37.06933594 361.27075195 C35.3429412 361.29572313 33.61665029 361.32971282 31.890625 361.37329102 C11.79041524 361.86765381 11.79041524 361.86765381 3.73901367 354.55224609 C-2.38976288 347.76320844 -3.71744462 339.85962457 -5.32202148 331.17553711 C-5.57238481 329.85662415 -5.8235379 328.53786091 -6.07541084 327.21923542 C-6.76312846 323.60646868 -7.4396245 319.9916785 -8.11429715 316.37645626 C-8.84297021 312.48294125 -9.5821617 308.59142244 -10.3200531 304.699646 C-11.76017077 297.09503631 -13.1906908 289.48865239 -14.61763734 281.8815614 C-16.27743758 273.03412146 -17.94482925 264.18811812 -19.61271238 255.34219897 C-21.85737552 243.4367303 -24.1001515 231.5309102 -26.33752441 219.62406921 C-30.64820937 196.68804552 -34.99741833 173.75970548 -39.37985331 150.83728689 C-41.50768594 139.70498093 -43.6242993 128.57053952 -45.73955441 117.43583775 C-47.29069684 109.27278533 -48.84706032 101.1107963 -50.41598511 92.95114136 C-51.74918701 86.01732797 -53.07167215 79.08157558 -54.38062996 72.14314282 C-55.0456934 68.6197195 -55.71561877 65.09742248 -56.3996563 61.57762909 C-64.13341811 21.73289939 -64.13341811 21.73289939 -56.671875 9.99609375 C-51.23444105 2.34758707 -45.52802814 -1.98146352 -36.671875 -5.00390625 C-35.63740234 -5.36935547 -35.63740234 -5.36935547 -34.58203125 -5.7421875 C-22.69965058 -9.3141915 -9.81795691 -7.42521584 0 0 Z " fill="#E02650" transform="translate(63.671875,151.00390625)"/>
<path d="M0 0 C3.84692812 1.97099612 5.49729036 4.46723697 7.37109375 8.21484375 C7.74394705 12.68908332 7.81598955 15.24767896 5.93359375 19.33984375 C-0.28926101 26.32158324 -9.48759703 31.44749337 -18.8828125 32.45703125 C-20.81640625 32.46484375 -20.81640625 32.46484375 -23.62890625 32.21484375 C-23.62890625 33.20484375 -23.62890625 34.19484375 -23.62890625 35.21484375 C-22.60152344 35.18003906 -21.57414062 35.14523438 -20.515625 35.109375 C-8.80655663 34.82738243 1.07100608 35.31854108 10.37109375 43.2734375 C17.94920947 50.62953811 22.52018508 59.2677835 22.75537109 69.98999023 C22.60421537 81.3892325 20.0091559 92.5342441 17.84765625 103.6875 C17.38064901 106.14397511 16.91463154 108.60063858 16.44955444 111.05747986 C15.47714027 116.18007244 14.49634484 121.3009596 13.50878906 126.4206543 C12.24332851 132.98204428 10.99367085 139.54628512 9.74953651 146.1117487 C8.78959288 151.17312992 7.82411654 156.23344203 6.85667038 161.29339409 C6.39391219 163.71450772 5.93223722 166.13582866 5.47166824 168.5573597 C4.82828638 171.93257784 4.17812961 175.30641768 3.52587891 178.67993164 C3.33670395 179.67789261 3.14752899 180.67585358 2.95262146 181.70405579 C0.70788564 193.22019238 0.70788564 193.22019238 -2.765625 195.8046875 C-3.60738281 196.24941406 -4.44914062 196.69414062 -5.31640625 197.15234375 C-16.26999024 203.37776199 -22.22536781 211.39481951 -26.62890625 223.21484375 C-30.46708844 238.32258214 -27.04694394 251.8982833 -19.31640625 265.02734375 C-18.43115882 266.42991462 -17.53950869 267.82860017 -16.62890625 269.21484375 C-17.39074219 269.90707031 -17.39074219 269.90707031 -18.16796875 270.61328125 C-23.45985089 275.62768643 -27.16604457 280.81379641 -30.62890625 287.21484375 C-31.85673828 286.97701172 -31.85673828 286.97701172 -33.109375 286.734375 C-43.05177467 285.26673998 -53.9409896 284.52337183 -62.62890625 290.21484375 C-63.32242187 290.63894531 -64.0159375 291.06304687 -64.73046875 291.5 C-72.95870466 297.03171665 -77.09497942 304.81264156 -79.62890625 314.21484375 C-80.57459747 311.12106704 -80.64266727 308.71136175 -80.28686523 305.50537109 C-80.18578964 304.56390228 -80.08471405 303.62243347 -79.98057556 302.6524353 C-79.86323563 301.62888947 -79.74589569 300.60534363 -79.625 299.55078125 C-79.50681412 298.47236969 -79.38862823 297.39395813 -79.26686096 296.28286743 C-78.87391633 292.71768558 -78.47035842 289.15379389 -78.06640625 285.58984375 C-77.78803334 283.08858372 -77.51004352 280.58728103 -77.23242188 278.0859375 C-75.3373778 261.10187506 -73.32439418 244.13279304 -71.25784302 227.16885376 C-68.78896965 206.8914352 -66.56336143 186.59072292 -64.37014771 166.28189087 C-64.24928802 165.16277313 -64.12842834 164.0436554 -64.00390625 162.890625 C-63.88506073 161.7896347 -63.76621521 160.68864441 -63.64376831 159.55429077 C-62.63060225 150.18724219 -61.57996824 140.82485558 -60.50390625 131.46484375 C-60.42576691 130.78304047 -60.34762756 130.10123718 -60.26712036 129.39877319 C-59.46019549 122.35880948 -58.64271259 115.320172 -57.81109619 108.28308105 C-57.44057573 105.14129379 -57.07375598 101.9990794 -56.70733643 98.85681152 C-56.45356307 96.69347668 -56.19444905 94.53083116 -55.93505859 92.36816406 C-54.79242656 82.6611393 -54.11030302 72.97468939 -53.62890625 63.21484375 C-52.96890625 63.21484375 -52.30890625 63.21484375 -51.62890625 63.21484375 C-51.58765625 62.43109375 -51.54640625 61.64734375 -51.50390625 60.83984375 C-49.76433532 53.63304988 -45.19847831 47.92680883 -40.62890625 42.21484375 C-49.04390625 40.23484375 -49.04390625 40.23484375 -57.62890625 38.21484375 C-57.62890625 27.18505711 -54.90085481 19.4680673 -47.62890625 11.21484375 C-47.10425781 10.59738281 -46.57960938 9.97992188 -46.0390625 9.34375 C-41.59905186 4.48585601 -36.63451844 1.79281554 -30.62890625 -0.78515625 C-29.85933594 -1.15253906 -29.08976562 -1.51992187 -28.296875 -1.8984375 C-19.44245688 -4.84126753 -8.53595094 -3.25454846 0 0 Z " fill="#E52352" transform="translate(361.62890625,108.78515625)"/>
<path d="M0 0 C2.69437871 1.25507384 4.45253256 2.39082358 6.75 4.375 C13.59785574 10.18497927 21.00642434 11.91394793 29.72851562 13.0703125 C32.05968148 13.48596192 33.90580686 13.88865042 36 15 C37.61860083 17.52650326 38.28274052 20.10869364 39 23 C39.636043 24.41005122 40.29533163 25.81046056 41 27.1875 C41.309375 27.79980469 41.61875 28.41210938 41.9375 29.04296875 C43.00690012 31.10766361 43.00690012 31.10766361 44.625 33.27734375 C46.42572917 36.84299214 46.19316965 39.40697353 46 43.375 C45.81854389 49.05787529 46.26529133 52.98636745 49 58 C49 58.99 49 59.98 49 61 C47.27734375 62.359375 47.27734375 62.359375 44.9375 63.75 C35.98638146 69.46407882 30.51436998 75.94680283 27.6875 86.25 C25.7013739 96.87304143 28.08715838 106.04843892 34 115 C35.98790111 117.22394132 38.0121812 119.23148255 40.265625 121.18359375 C42.2836836 123.29710106 43.07569194 125.25065511 44 128 C42.25197854 128.81674796 40.50149811 129.62823451 38.75 130.4375 C37.77546875 130.88996094 36.8009375 131.34242188 35.796875 131.80859375 C26.32879624 135.84178373 12.45823966 135.68642914 2.8125 132.375 C-4.42006108 129.16178997 -10.66060257 124.8247972 -16 119 C-16.99 118.01 -16.99 118.01 -18 117 C-18.30292969 117.51949219 -18.60585938 118.03898437 -18.91796875 118.57421875 C-23.31345292 125.89100933 -27.88248939 130.97663247 -36 134 C-39.05197731 134.48832321 -42.00933552 134.47123913 -45.09375 134.390625 C-46.34194519 134.38213531 -46.34194519 134.38213531 -47.61535645 134.37347412 C-50.2441841 134.35128184 -52.87159217 134.30112133 -55.5 134.25 C-57.29425099 134.22991268 -59.08852359 134.21166584 -60.8828125 134.1953125 C-65.25574602 134.15147383 -69.62763328 134.08256939 -74 134 C-72.40337991 120.01999256 -70.79551714 106.04133484 -69.16885376 92.06478882 C-68.47611015 86.11158654 -67.78891488 80.1578512 -67.11315918 74.20269775 C-66.7100096 70.6756563 -66.2917559 67.15045913 -65.875 63.625 C-65.74125977 62.41972656 -65.60751953 61.21445312 -65.46972656 59.97265625 C-63.72491538 45.53793596 -60.6731176 31.72599408 -48.8671875 22.28125 C-42.02599835 17.58687753 -35.96029798 15.83282771 -27.6875 15.875 C-26.94048828 15.87113281 -26.19347656 15.86726563 -25.42382812 15.86328125 C-21.17240142 15.87074644 -17.18702309 16.16126405 -13 17 C-12.47212891 16.03900391 -12.47212891 16.03900391 -11.93359375 15.05859375 C-8.58378914 9.18987601 -5.04035082 4.50350872 0 0 Z " fill="#F6CD42" transform="translate(344,378)"/>
<path d="M0 0 C8.42093123 4.64859167 13.22159535 14.10782193 16.39135742 22.85620117 C17.41570493 26.46422181 17.53208744 29.9543898 17.5 33.6875 C17.49427979 34.46988037 17.48855957 35.25226074 17.48266602 36.05834961 C17.14769346 47.08537559 13.02260999 57.29347783 5 65 C1.49661297 67.68121698 -2.11745724 69.91157685 -6 72 C-6.98613281 72.54333984 -6.98613281 72.54333984 -7.9921875 73.09765625 C-14.19399243 75.95900402 -21.34095436 75.87873605 -28 75 C-31.80797033 73.20599232 -33.68034456 70.47948316 -36 67 C-36.77431697 59.38588312 -34.81607988 54.62495389 -30.1640625 48.63671875 C-26.50035351 44.3483544 -22.99373483 40.67106747 -18 38 C-17.01 38 -16.02 38 -15 38 C-15.28875 37.36835938 -15.5775 36.73671875 -15.875 36.0859375 C-19.64955182 26.99031611 -21.08905695 17.24702705 -17.3125 7.875 C-13.36324201 0.53675938 -8.17032682 -1.8086983 0 0 Z " fill="#AE5F49" transform="translate(419,405)"/>
<path d="M0 0 C2.80215642 1.49955655 5.40878851 3.16429837 8 5 C8.99 5.66 9.98 6.32 11 7 C11.40089844 6.61328125 11.80179688 6.2265625 12.21484375 5.828125 C16.74629542 1.67686315 21.15215224 -1.07623993 27 -3 C27.81855469 -3.26941406 28.63710937 -3.53882812 29.48046875 -3.81640625 C32.32294228 -4.44659806 34.15067262 -4.65204044 37 -4 C39.73623854 -1.72694917 41.81640293 0.67432113 43.9921875 3.484375 C45.84419949 5.8047947 47.55219236 7.35349262 50 9 C48.87637546 18.57889922 42.79570096 26.21236043 35.53515625 32.27734375 C25.24882544 39.26697686 14.18042899 40.92790822 2 40 C-10.30882032 37.26644219 -19.47347191 29.24322028 -26.390625 18.92578125 C-29.05964574 14.14221943 -29.70225432 10.442471 -29 5 C-22.75106375 -7.73821621 -10.87993689 -4.48761323 0 0 Z " fill="#AE5F49" transform="translate(55,94)"/>
<path d="M0 0 C2.85045666 0.92805566 5.64610372 1.94632492 8.4296875 3.05859375 C11.47195967 4.1586541 14.57200582 5.00791668 17.6875 5.875 C18.47030272 19.58274546 16.71660835 30.02199351 7.5546875 40.9140625 C-0.02472539 48.87403169 -9.58641308 53.94295704 -20.66259766 54.41796875 C-33.86231414 54.53449681 -42.99248699 50.44424244 -52.75 41.6875 C-55.73730292 38.22222861 -55.66301068 34.45438222 -55.578125 30.08984375 C-55.15452146 26.55773774 -54.0027126 25.17152295 -51.3125 22.875 C-43.57102396 17.25827275 -33.42468631 18.18999299 -24.3125 18.875 C-22.63700944 19.16069262 -20.96296685 19.46898515 -19.3125 19.875 C-18.8175 18.740625 -18.3225 17.60625 -17.8125 16.4375 C-14.70692268 10.22634536 -7.8654594 -0.42515997 0 0 Z " fill="#AE5F49" transform="translate(355.3125,386.125)"/>
<path d="M0 0 C0.66 0 1.32 0 2 0 C2.18433594 0.60585938 2.36867188 1.21171875 2.55859375 1.8359375 C5.90066155 11.49080003 12.21368863 19.085845 21.1640625 24.109375 C26.03250299 26.47108656 30.67244028 27.27208842 36 28 C36.34611328 29.46759766 36.34611328 29.46759766 36.69921875 30.96484375 C38.4201644 37.97116768 40.24908686 43.92786342 44.01171875 50.1484375 C45.51719387 52.96897192 45.62248491 54.88757543 45 58 C41.01473904 65.23251064 35.70893273 70.14107192 28 73 C24.947934 73.48770832 21.99067015 73.47123928 18.90625 73.390625 C17.65805481 73.38213531 17.65805481 73.38213531 16.38464355 73.37347412 C13.7558159 73.35128184 11.12840783 73.30112133 8.5 73.25 C6.70574901 73.22991268 4.91147641 73.21166584 3.1171875 73.1953125 C-1.25574602 73.15147383 -5.62763328 73.08256939 -10 73 C-9.18240824 65.90564812 -8.36449989 58.81133279 -7.54638672 51.71704102 C-7.26897262 49.31112465 -6.99162707 46.90520037 -6.71435547 44.49926758 C-6.5804541 43.33741943 -6.44655273 42.17557129 -6.30859375 40.97851562 C-6.17588074 39.82644623 -6.04316772 38.67437683 -5.90643311 37.48739624 C-5.64156481 35.19351353 -5.37566186 32.89975004 -5.10870361 30.60610962 C-4.52922558 25.62453529 -3.95666186 20.64308434 -3.42871094 15.65576172 C-3.34297821 14.86745468 -3.25724548 14.07914764 -3.16891479 13.26695251 C-2.94838332 11.23117894 -2.73531975 9.19460007 -2.52294922 7.15795898 C-2.05445001 4.32880994 -1.46944848 2.43194105 0 0 Z " fill="#AE2E3E" transform="translate(280,439)"/>
<path d="M0 0 C2.62426385 2.09941108 4.30769131 3.66632677 4.80078125 7.0859375 C4.83049094 12.88923018 4.24023846 16.2307643 0.0234375 20.4921875 C-6.13492044 26.14437903 -13.23621007 30.2043965 -21.75 30.0625 C-23.60625 30.0315625 -23.60625 30.0315625 -25.5 30 C-25.4175 30.9075 -25.335 31.815 -25.25 32.75 C-25.23846106 38.35792704 -27.12640669 43.96702957 -29.5 49 C-30.985 49.495 -30.985 49.495 -32.5 50 C-33.16 49.278125 -33.82 48.55625 -34.5 47.8125 C-41.90579172 40.44854891 -50.33724537 38.06976365 -60.5 37 C-60.21998562 29.50961538 -59.15619715 23.57174986 -55.5 17 C-55.08878906 16.24847656 -54.67757812 15.49695313 -54.25390625 14.72265625 C-48.38955933 5.00412099 -39.36865803 -1.24702074 -28.625 -4.58203125 C-18.93391996 -6.48818118 -8.4311466 -5.28216414 0 0 Z " fill="#AE5F48" transform="translate(200.5,79)"/>
<path d="M0 0 C3.75577438 3.18930428 5.60215086 5.20471014 6.140625 10.23046875 C6.04133617 18.03173396 1.11697138 25.37912237 -4.234375 30.73046875 C-7.15415424 32.86737295 -10.15210723 34.8367879 -13.234375 36.73046875 C-13.09 37.32472656 -12.945625 37.91898437 -12.796875 38.53125 C-11.34421212 45.01779327 -11.0073605 51.09660061 -11.234375 57.73046875 C-11.87761719 57.51390625 -12.52085937 57.29734375 -13.18359375 57.07421875 C-23.75441612 53.81701813 -33.58870944 53.8435086 -44.234375 56.73046875 C-48.82938831 44.86001771 -48.49628401 33.71970521 -43.7734375 21.92578125 C-38.53815467 11.05658999 -29.571689 3.73187369 -18.234375 -0.26953125 C-12.3964913 -1.61079709 -5.43437432 -3.08771268 0 0 Z " fill="#AD5E48" transform="translate(453.234375,331.26953125)"/>
<path d="M0 0 C3.84692812 1.97099612 5.49729036 4.46723697 7.37109375 8.21484375 C7.74394705 12.68908332 7.81598955 15.24767896 5.93359375 19.33984375 C-0.28926101 26.32158324 -9.48759703 31.44749337 -18.8828125 32.45703125 C-20.81640625 32.46484375 -20.81640625 32.46484375 -23.62890625 32.21484375 C-23.62890625 33.20484375 -23.62890625 34.19484375 -23.62890625 35.21484375 C-22.30890625 35.54484375 -20.98890625 35.87484375 -19.62890625 36.21484375 C-20.40234375 36.385 -21.17578125 36.55515625 -21.97265625 36.73046875 C-29.11392447 38.34830641 -29.11392447 38.34830641 -35.56640625 41.65234375 C-38.43572227 43.25578506 -39.51790091 43.2356911 -42.83203125 42.61328125 C-45.09870599 41.90685123 -47.34975816 41.14741676 -49.578125 40.328125 C-52.27754825 39.34306018 -54.80286408 38.69196775 -57.62890625 38.21484375 C-58.34719709 28.69749015 -55.28888877 20.41881869 -49.25 13.0546875 C-48.71503906 12.44753906 -48.18007813 11.84039062 -47.62890625 11.21484375 C-47.10425781 10.59738281 -46.57960938 9.97992188 -46.0390625 9.34375 C-41.59905186 4.48585601 -36.63451844 1.79281554 -30.62890625 -0.78515625 C-29.85933594 -1.15253906 -29.08976562 -1.51992187 -28.296875 -1.8984375 C-19.44245688 -4.84126753 -8.53595094 -3.25454846 0 0 Z " fill="#AE5E49" transform="translate(361.62890625,108.78515625)"/>
<path d="M0 0 C4.10860512 1.85731464 7.482255 4.31614412 10.8515625 7.2890625 C13.94267092 5.80760962 16.81841625 4.10099163 19.7265625 2.2890625 C25.21924935 -1.00333751 30.25300955 -3.4225034 36.8359375 -3.296875 C40.36160579 -2.27197143 42.08131673 0.43715312 44.23828125 3.2734375 C45.8690444 5.51953489 45.8690444 5.51953489 48.8515625 7.2890625 C50.8515625 9.2890625 50.8515625 9.2890625 50.96875 11.234375 C50.6494864 14.1077474 50.1499049 16.69237769 48.8515625 19.2890625 C47.07133796 19.61057462 45.27513404 19.84487226 43.4765625 20.0390625 C33.56145319 21.58167452 25.99158692 25.97931088 19.578125 33.69921875 C16.55677168 38.23124873 14.65301466 43.17051332 12.8515625 48.2890625 C10.48441496 45.92191496 9.60785076 43.7121567 8.2265625 40.6640625 C4.37733608 32.87218184 -0.71695915 26.76254254 -8.7265625 23.078125 C-13.09516358 21.65480658 -17.63787203 20.98714693 -22.171875 20.29296875 C-25.1484375 19.2890625 -25.1484375 19.2890625 -26.54296875 16.97265625 C-27.68723003 11.90099497 -27.96857575 7.27466038 -25.9609375 2.4140625 C-18.94924023 -5.8065481 -9.12717711 -3.27823674 0 0 Z " fill="#A95B47" transform="translate(217.1484375,124.7109375)"/>
<path d="M0 0 C5.09561563 3.23360871 9.35513511 5.93997145 11 12 C10.26451818 13.57125662 9.52241897 15.13995067 8.73828125 16.6875 C7.08587546 21.86328957 7.79876648 27.62631965 8 33 C8.99 33.495 8.99 33.495 10 34 C9.60167969 34.4125 9.20335937 34.825 8.79296875 35.25 C1.02700392 43.71509062 0.21415264 53.02977382 -1 64 C-1.33 64 -1.66 64 -2 64 C-1.99097656 63.22398437 -1.98195312 62.44796875 -1.97265625 61.6484375 C-2.27056753 50.79410474 -5.72287891 40.61886051 -13.6875 32.9375 C-15.74524564 31.35882824 -15.74524564 31.35882824 -18 30 C-18.78117187 29.50886719 -19.56234375 29.01773438 -20.3671875 28.51171875 C-30.43544715 23.33167212 -41.93560829 24.07171886 -53 24 C-51.87486429 15.08944249 -47.16451285 8.07854019 -40.16796875 2.5390625 C-39.45253906 2.03117187 -38.73710938 1.52328125 -38 1 C-36.94232422 0.23816406 -36.94232422 0.23816406 -35.86328125 -0.5390625 C-25.42957103 -6.88077431 -10.47258107 -5.73059636 0 0 Z " fill="#F9D13B" transform="translate(159,120)"/>
<path d="M0 0 C9.02999886 0.41045449 17.2336497 4.9721987 23.8125 11 C35.42685002 23.86480011 35.91885002 35.4050631 35.11108398 52.01904297 C35.07442627 52.67275879 35.03776855 53.32647461 35 54 C34.33178223 54.25104492 33.66356445 54.50208984 32.97509766 54.76074219 C26.30704368 57.32434485 26.30704368 57.32434485 20.375 61.25 C19.72273438 61.77078125 19.07046875 62.2915625 18.3984375 62.828125 C17.93695313 63.21484375 17.47546875 63.6015625 17 64 C10.27262246 60.72182874 6.53129858 57.05770933 4 50 C2.40775115 43.69599435 3.10579175 39.89973219 6 34 C8.58402058 23.42900674 7.00480135 13.60457693 1.36328125 4.30078125 C0 2 0 2 0 0 Z " fill="#A75943" transform="translate(213,57)"/>
<path d="M0 0 C2.99745992 1.30669829 5.33631848 2.84022473 7.65234375 5.15625 C6.99234375 5.15625 6.33234375 5.15625 5.65234375 5.15625 C2.94266338 13.96271119 2.28528267 21.96612806 2.65234375 31.15625 C2.19085938 30.76953125 1.729375 30.3828125 1.25390625 29.984375 C-5.52394137 24.57281287 -12.27625784 21.56497828 -20.84765625 20.21875 C-25.13533834 19.42573043 -25.13533834 19.42573043 -26.97265625 17.09375 C-27.63764075 11.88470474 -28.20126654 7.22288544 -26.16015625 2.28125 C-19.05329729 -6.05092947 -9.20253439 -3.31622861 0 0 Z " fill="#C06D57" transform="translate(217.34765625,124.84375)"/>
<path d="M0 0 C5.65641622 2.61065364 7.86301648 6.38904841 10 12 C11.10679288 15.70847484 11.07433921 19.13436111 11 23 C10.20335937 22.51789063 9.40671875 22.03578125 8.5859375 21.5390625 C7.52632812 20.90742188 6.46671875 20.27578125 5.375 19.625 C4.33085937 18.99851563 3.28671875 18.37203125 2.2109375 17.7265625 C-2.96685198 14.94239833 -7.52696459 13.76486903 -13.375 13.375 C-14.43460937 13.30023438 -15.49421875 13.22546875 -16.5859375 13.1484375 C-17.78089844 13.07496094 -17.78089844 13.07496094 -19 13 C-17.11094034 8.02353446 -14.94280927 4.5650408 -10.75 1.1875 C-7.09960411 -0.38880732 -3.87493526 -0.66231703 0 0 Z " fill="#B6664F" transform="translate(136,131)"/>
<path d="M0 0 C2.475 5.445 2.475 5.445 5 11 C2.339375 11.556875 2.339375 11.556875 -0.375 12.125 C-8.37423968 14.11062687 -14.5149895 18.04781016 -21 23 C-23.0625 21.25 -23.0625 21.25 -25 19 C-24.41734191 14.117727 -21.30858108 10.44754149 -18 7 C-12.15799732 2.78178378 -7.31370402 0 0 0 Z " fill="#FCDE5C" transform="translate(86,79)"/>
<path d="M0 0 C0.67408308 1.26691507 1.33900497 2.53870749 2 3.8125 C2.556875 4.87404297 2.556875 4.87404297 3.125 5.95703125 C4 8 4 8 4 11 C2.87464844 11.22042969 2.87464844 11.22042969 1.7265625 11.4453125 C-4.91155698 12.90001375 -10.15431408 14.87107572 -15.84375 18.59765625 C-17.8437231 19.89836339 -19.8473106 20.97747254 -22 22 C-23.32 20.35 -24.64 18.7 -26 17 C-20.64361194 8.27107131 -10.68664623 -0.28882828 0 0 Z " fill="#FBDC5C" transform="translate(250,111)"/>
<path d="M0 0 C3.92300272 1.82504909 6.73787272 4.18270826 10 7 C7.64463175 9.44958298 5.21166203 11.63298406 2.5625 13.75 C-2.39068477 17.93788584 -5.17660536 23.25100639 -8 29 C-10.31 28.34 -12.62 27.68 -15 27 C-14.83470339 16.91690652 -10.05437277 9.86133304 -3.0625 2.8125 C-2.05184357 1.86403781 -1.03504394 0.92178685 0 0 Z " fill="#FCDC5C" transform="translate(344,378)"/>
<path d="M0 0 C6.88466945 6.1470263 9.50487865 13.48090227 10.1875 22.46875 C10.34375 28.484375 10.34375 28.484375 8 32 C7.52949219 31.59007812 7.05898438 31.18015625 6.57421875 30.7578125 C5.95160156 30.21898437 5.32898438 29.68015625 4.6875 29.125 C3.76517578 28.32449219 3.76517578 28.32449219 2.82421875 27.5078125 C0.86501788 25.8359553 0.86501788 25.8359553 -2 24 C-2.52410253 21.34709901 -2.8816667 18.8665519 -3.125 16.1875 C-3.80303134 9.55536117 -3.80303134 9.55536117 -5 3 C-3.35 2.01 -1.7 1.02 0 0 Z " fill="#FBDE5C" transform="translate(444,365)"/>
<path d="M0 0 C2.31 0 4.62 0 7 0 C7.103125 0.61875 7.20625 1.2375 7.3125 1.875 C7.87525373 4.36526484 7.87525373 4.36526484 11 6 C9.7315625 6.804375 9.7315625 6.804375 8.4375 7.625 C4.69225284 10.10991339 1.35672128 13.02066159 -2 16 C-1.42978066 10.6496441 -0.79265639 5.32212148 0 0 Z " fill="#FBDE5F" transform="translate(175,109)"/>
<path d="M0 0 C0.33 0 0.66 0 1 0 C1.69821417 2.10063576 2.38324472 4.20565737 3.0625 6.3125 C3.44535156 7.48425781 3.82820312 8.65601562 4.22265625 9.86328125 C5 13 5 13 4 16 C0.04 14.35 -3.92 12.7 -8 11 C-6.50260417 9.01432292 -5.00520833 7.02864583 -3.5078125 5.04296875 C-2.29185219 3.39543703 -1.13583859 1.70375789 0 0 Z " fill="#FADB5C" transform="translate(215,99)"/>
<path d="M0 0 C0.66 0.33 1.32 0.66 2 1 C1.360625 2.134375 0.72125 3.26875 0.0625 4.4375 C-3.1608502 11.52203648 -2.82434768 19.3503413 -3 27 C-3.33 27 -3.66 27 -4 27 C-4.3383344 24.62561751 -4.67079002 22.25065041 -5 19.875 C-5.09539062 19.20984375 -5.19078125 18.5446875 -5.2890625 17.859375 C-6.76495399 7.1064513 -6.76495399 7.1064513 -4.6875 4.1015625 C-2.34375 2.05078125 -2.34375 2.05078125 0 0 Z " fill="#F7D68E" transform="translate(82,160)"/>
<path d="M0 0 C2.64 0 5.28 0 8 0 C8 0.99 8 1.98 8 3 C5.36 3 2.72 3 0 3 C0 2.01 0 1.02 0 0 Z " fill="#FADB5C" transform="translate(338,141)"/>
<path d="M0 0 C1.65 0 3.3 0 5 0 C4.34 2.31 3.68 4.62 3 7 C0.64046906 4.64046906 0.50858587 3.22104383 0 0 Z " fill="#F3C73C" transform="translate(227,166)"/>
</svg>
